<svg width="79" height="35" viewBox="0 0 79 35" fill="none" xmlns="http://www.w3.org/2000/svg">
<path d="M19.7361 0.0241699V35H60.1002V0.0241699H19.7361ZM57.7308 32.9668H22.1055V2.03316H57.7308V32.9668Z" fill="#F3C677"/>
<path d="M20.1263 0.0241699C19.987 0.0241699 19.8755 0.0241699 19.7361 0.0241699V2.08157C19.8755 2.08157 19.987 2.08157 20.1263 2.08157C29.9386 2.08157 37.9111 9.00412 37.9111 17.5242C37.9111 26.0442 29.9386 32.9668 20.1263 32.9668C19.987 32.9668 19.8755 32.9668 19.7361 32.9668V35C19.8755 35 19.987 35 20.1263 35C31.2488 35 40.2527 27.1819 40.2527 17.5242C40.2527 7.8665 31.2488 0.0241699 20.1263 0.0241699Z" fill="#2F3944"/>
<path d="M2.34156 17.5C2.34156 9.07676 10.091 2.25104 19.7361 2.0574V0C8.80876 0.169433 0 7.93914 0 17.5C0 27.0609 8.80876 34.8064 19.7361 34.9758V32.9426C10.091 32.7732 2.34156 25.9232 2.34156 17.5Z" fill="#F3C677"/>
<path d="M60.1001 0.0241699H57.7307L40.0295 32.9668H42.8171L58.9015 3.02556L75.0694 32.9668H60.1001V34.9758H78.9999L60.1001 0.0241699Z" fill="#F3C677"/>
<path d="M42.8171 32.9668H40.0295L38.9424 34.9758H60.1001V32.9668H42.8171Z" fill="#2F3944"/>
</svg>
